<?xml version="1.0" encoding="UTF-8"?>
<svg version="1.1" xmlns="http://www.w3.org/2000/svg" width="96" height="96">
<path d="M0 0 C0.98079025 0.00022659 1.96158051 0.00045319 2.97209167 0.00068665 C4.028423 0.0161705 5.08475433 0.03165436 6.1730957 0.04760742 C7.25645706 0.05185226 8.33981842 0.05609711 9.45600891 0.06047058 C12.92054972 0.07728048 16.38451157 0.11493769 19.84887695 0.15307617 C22.19587377 0.16811999 24.54287969 0.18180892 26.88989258 0.1940918 C32.647252 0.22719156 38.40427312 0.27741412 44.16137695 0.34057617 C45.16137695 3.34057617 45.16137695 3.34057617 44.20581055 5.26611328 C43.70388184 5.98033447 43.20195313 6.69455566 42.68481445 7.43041992 C42.12761719 8.22561035 41.57041992 9.02080078 40.99633789 9.84008789 C38.00113744 13.92162635 34.92059163 17.92761945 31.78637695 21.90307617 C28.50700195 26.07963867 28.50700195 26.07963867 25.16137695 30.34057617 C34.73137695 30.67057617 44.30137695 31.00057617 54.16137695 31.34057617 C55.16137695 36.34057617 55.16137695 36.34057617 53.93310547 38.26586914 C53.30847412 38.86544434 52.68384277 39.46501953 52.0402832 40.08276367 C51.3512793 40.75694336 50.66227539 41.43112305 49.95239258 42.12573242 C49.21698242 42.81538086 48.48157227 43.5050293 47.72387695 44.21557617 C47.02327148 44.89749023 46.32266602 45.5794043 45.60083008 46.28198242 C41.47900838 50.26350292 37.22233066 54.06599769 32.89160156 57.81762695 C30.89183859 59.5778247 29.01157437 61.42430028 27.16137695 63.34057617 C24.60147561 65.940398 21.99358155 68.40326015 19.22387695 70.77807617 C15.41593366 74.04947951 11.91573631 77.56894508 8.3918457 81.14135742 C5.70079235 83.79470775 2.88315563 86.25743999 0.0012207 88.69995117 C-1.79202341 90.29902235 -3.35829987 91.99345716 -4.96362305 93.77807617 C-7.83862305 96.34057617 -7.83862305 96.34057617 -11.21362305 96.71557617 C-12.07987305 96.59182617 -12.94612305 96.46807617 -13.83862305 96.34057617 C-15.25235268 91.75941111 -14.23851964 88.32322031 -12.78393555 83.92260742 C-12.56293182 83.22415207 -12.3419281 82.52569672 -12.11422729 81.80607605 C-11.408252 79.58475601 -10.68601599 77.36910435 -9.96362305 75.15307617 C-9.48472263 73.651453 -9.00684675 72.14950268 -8.5300293 70.6472168 C-5.06681357 59.79695722 -5.06681357 59.79695722 -3.83862305 57.34057617 C-4.5248877 57.34581299 -5.21115234 57.3510498 -5.91821289 57.35644531 C-9.01667369 57.37718573 -12.11511991 57.39022693 -15.21362305 57.40307617 C-16.29385742 57.41145508 -17.3740918 57.41983398 -18.48706055 57.4284668 C-19.51831055 57.43168945 -20.54956055 57.43491211 -21.61206055 57.43823242 C-22.56516113 57.44346924 -23.51826172 57.44870605 -24.50024414 57.45410156 C-26.83862305 57.34057617 -26.83862305 57.34057617 -28.83862305 56.34057617 C-29.13457148 51.52419584 -28.29094566 48.40608146 -26.27612305 44.04370117 C-25.73004395 42.84535645 -25.18396484 41.64701172 -24.62133789 40.41235352 C-24.02740744 39.13828419 -23.43316346 37.86436097 -22.83862305 36.59057617 C-22.23940621 35.28719492 -21.64126642 33.98331799 -21.04418945 32.67895508 C-20.15073734 30.72820419 -19.25625139 28.77798941 -18.35708618 26.8298645 C-16.62826208 23.08298588 -14.93970244 19.32238909 -13.29956055 15.53588867 C-12.76008789 14.29210449 -12.76008789 14.29210449 -12.2097168 13.02319336 C-11.56449314 11.52842522 -10.92358496 10.03178385 -10.2878418 8.53295898 C-7.83319536 2.89893453 -6.42314447 -0.04953582 0 0 Z " fill="#0093FF" transform="translate(34.838623046875,-0.340576171875)"/>
</svg>
