<svg width="180" height="38" viewBox="0 0 180 38" fill="none" xmlns="http://www.w3.org/2000/svg">
<path d="M12.86 26.148C16.82 26.148 19.34 22.548 19.34 16.536C19.34 10.848 16.82 7.428 12.86 7.428C8.9 7.428 6.416 10.848 6.416 16.536C6.416 22.548 8.9 26.148 12.86 26.148ZM21.464 37.236C16.028 37.236 12.212 34.32 10.412 30.288C4.724 29.172 0.944 24.168 0.944 16.536C0.944 7.896 5.804 2.856 12.86 2.856C19.916 2.856 24.776 7.896 24.776 16.536C24.776 23.844 21.32 28.74 16.028 30.108C17.252 32.124 19.664 32.988 22.076 32.988C23.228 32.988 24.236 32.772 24.992 32.52L25.964 36.444C25.028 36.912 23.408 37.236 21.464 37.236ZM35.5591 30.504C31.2031 30.504 29.3311 27.48 29.3311 22.404V9.84H34.5871V21.756C34.5871 24.888 35.4871 25.968 37.4671 25.968C39.0871 25.968 40.1671 25.248 41.5351 23.448V9.84H46.8271V30H42.5071L42.1111 27.084H41.9671C40.2391 29.136 38.3311 30.504 35.5591 30.504ZM52.469 30V9.84H57.761V30H52.469ZM55.133 6.564C53.261 6.564 52.073 5.448 52.073 3.684C52.073 1.956 53.261 0.803998 55.133 0.803998C56.933 0.803998 58.193 1.956 58.193 3.684C58.193 5.448 56.933 6.564 55.133 6.564ZM71.9706 30.504C66.4266 30.504 62.1426 26.616 62.1426 19.92C62.1426 13.224 66.9666 9.336 72.4386 9.336C74.9226 9.336 76.8306 10.272 78.3066 11.604L75.7866 14.952C74.7786 14.124 73.8426 13.656 72.7266 13.656C69.6306 13.656 67.5426 16.14 67.5426 19.92C67.5426 23.736 69.6306 26.184 72.5466 26.184C74.0226 26.184 75.3546 25.5 76.4706 24.564L78.5586 28.056C76.6506 29.748 74.2026 30.504 71.9706 30.504ZM82.387 30V1.272H87.607V18.48H87.751L94.627 9.84H100.423L93.511 18.156L101.071 30H95.311L90.415 21.612L87.607 24.888V30H82.387ZM107.904 30V7.788H100.416V3.324H120.756V7.788H113.232V30H107.904ZM129.792 30L121.656 3.324H127.272L130.764 16.32C131.592 19.272 132.168 21.936 132.996 24.924H133.176C134.04 21.936 134.616 19.272 135.444 16.32L138.9 3.324H144.3L136.164 30H129.792ZM157.239 30.504C150.687 30.504 146.871 26.832 146.871 18.012V3.324H152.163V18.48C152.163 24.024 154.107 25.896 157.239 25.896C160.335 25.896 162.387 24.024 162.387 18.48V3.324H167.499V18.012C167.499 26.832 163.719 30.504 157.239 30.504ZM173.909 30V3.324H179.237V30H173.909Z" fill="#3098FF"/>
</svg>
